<svg xmlns="http://www.w3.org/2000/svg" xmlns:xlink="http://www.w3.org/1999/xlink" viewBox="0 0 285.01 63.13"><defs><style>.cls-1{isolation:isolate;}.cls-2{fill:#716f6f;}.cls-3{fill:url(#linear-gradient);}.cls-4,.cls-6,.cls-7,.cls-8{mix-blend-mode:multiply;opacity:0.3;}.cls-4{fill:url(#linear-gradient-2);}.cls-5{fill:url(#linear-gradient-3);}.cls-6{fill:url(#linear-gradient-4);}.cls-7{fill:url(#linear-gradient-5);}.cls-8{fill:url(#linear-gradient-6);}.cls-9{fill:url(#linear-gradient-7);}</style><linearGradient id="linear-gradient" x1="38.39" y1="36.19" x2="267.94" y2="36.19" gradientUnits="userSpaceOnUse"><stop offset="0" stop-color="#e96c44"/><stop offset="1" stop-color="#e4366f"/></linearGradient><linearGradient id="linear-gradient-2" x1="58.01" y1="7.38" x2="65.46" y2="10.57" gradientUnits="userSpaceOnUse"><stop offset="0"/><stop offset="0.62" stop-opacity="0"/></linearGradient><linearGradient id="linear-gradient-3" y1="26.94" x2="57.94" y2="26.94" gradientUnits="userSpaceOnUse"><stop offset="0" stop-color="#716f6f"/><stop offset="1" stop-color="#939393"/></linearGradient><linearGradient id="linear-gradient-4" x1="-8772.44" y1="7.38" x2="-8764.99" y2="10.57" gradientTransform="matrix(1, 0, 0, -1, 8811.66, 21.42)" xlink:href="#linear-gradient-2"/><linearGradient id="linear-gradient-5" x1="41.54" y1="40.96" x2="48.99" y2="44.15" xlink:href="#linear-gradient-2"/><linearGradient id="linear-gradient-6" x1="-8756.45" y1="42.93" x2="-8753.4" y2="44.23" gradientTransform="matrix(1, 0, 0, -1, 8788.87, 88.59)" xlink:href="#linear-gradient-2"/><linearGradient id="linear-gradient-7" x1="38.39" y1="29.11" x2="91.4" y2="29.11" xlink:href="#linear-gradient"/></defs><g class="cls-1"><g id="Capa_2" data-name="Capa 2"><g id="Capa_1-2" data-name="Capa 1"><path class="cls-2" d="M122.75,27.22l-1.94-4.49h-9.45l-1.94,4.49H105L114.25,7h3.58l9.29,20.22Zm-9.92-7.87h6.54l-3.27-7.58Zm18.76,7.52a10,10,0,0,1-3.5-1.72L129.51,22A11.14,11.14,0,0,0,136,24a5.9,5.9,0,0,0,3-.61,1.9,1.9,0,0,0,1-1.72,1.69,1.69,0,0,0-.95-1.52,12.41,12.41,0,0,0-3.34-1.06,17.63,17.63,0,0,1-4.24-1.32,5.58,5.58,0,0,1-2.3-1.91,5,5,0,0,1-.73-2.79,5.6,5.6,0,0,1,1-3.27,6.62,6.62,0,0,1,2.83-2.26,10.22,10.22,0,0,1,4.2-.81,13.68,13.68,0,0,1,4.15.63,8.42,8.42,0,0,1,3.18,1.7l-1.42,3.18a9.47,9.47,0,0,0-5.88-2,4.8,4.8,0,0,0-2.73.68,2.11,2.11,0,0,0-1,1.85,1.71,1.71,0,0,0,.38,1.13,3.3,3.3,0,0,0,1.3.81,16,16,0,0,0,2.58.7,14,14,0,0,1,5.61,2.21,4.48,4.48,0,0,1,1.72,3.72,5.31,5.31,0,0,1-2.22,4.5A10,10,0,0,1,136,27.48,16.16,16.16,0,0,1,131.59,26.87Zm31.54.35-1.93-4.49h-9.46l-1.93,4.49h-4.46L154.64,7h3.58l9.29,20.22Zm-9.91-7.87h6.53l-3.26-7.58ZM186.2,7h3.49V27.22h-3.92v-11l-4.66,11h-2.87l-4.68-10.91V27.22h-3.89V7h3.52l6.53,14.91Zm23.66,11.56a5,5,0,0,1,1,3.12,4.85,4.85,0,0,1-1.9,4.05,8.19,8.19,0,0,1-5.17,1.49h-9.6V7h9.31a8,8,0,0,1,5,1.4,4.59,4.59,0,0,1,1.83,3.85,4.64,4.64,0,0,1-3.15,4.52A5.12,5.12,0,0,1,209.86,18.56Zm-11.39-3.33h4.26a4.48,4.48,0,0,0,2.54-.58,2,2,0,0,0,.84-1.8,2.12,2.12,0,0,0-.84-1.85,4.39,4.39,0,0,0-2.54-.59h-4.26Zm7.37,8a2.27,2.27,0,0,0,.81-1.94,2.35,2.35,0,0,0-.81-2,4.27,4.27,0,0,0-2.6-.63h-4.77v5.17h4.77A4.35,4.35,0,0,0,205.84,23.2Zm8.45,4V7h4.43V23.61h9v3.61Zm16.53,0V7h13.94v3.43h-9.63v4.78h9v3.46h-9v5.11h9.63v3.44Zm32.55,0-1.94-4.49H252L250,27.22h-4.45L254.87,7h3.58l9.29,20.22Zm-9.92-7.87H260l-3.27-7.58Zm18.76,7.52a10.1,10.1,0,0,1-3.51-1.72L270.12,22a11.17,11.17,0,0,0,6.54,2,5.93,5.93,0,0,0,3-.61,1.9,1.9,0,0,0,1-1.72,1.71,1.71,0,0,0-1-1.52,12.41,12.41,0,0,0-3.34-1.06,17.63,17.63,0,0,1-4.24-1.32,5.58,5.58,0,0,1-2.3-1.91,5,5,0,0,1-.73-2.79,5.6,5.6,0,0,1,1-3.27,6.56,6.56,0,0,1,2.83-2.26,10.22,10.22,0,0,1,4.2-.81,13.68,13.68,0,0,1,4.15.63,8.42,8.42,0,0,1,3.18,1.7l-1.42,3.18a9.47,9.47,0,0,0-5.88-2,4.8,4.8,0,0,0-2.73.68,2.11,2.11,0,0,0-1,1.85,1.71,1.71,0,0,0,.38,1.13,3.3,3.3,0,0,0,1.3.81,16,16,0,0,0,2.58.7,14,14,0,0,1,5.61,2.21A4.51,4.51,0,0,1,285,21.31a5.31,5.31,0,0,1-2.22,4.5,10,10,0,0,1-6.16,1.67A16.16,16.16,0,0,1,272.21,26.87Z"/><path class="cls-3" d="M122.12,38.46h4.46l-9.09,20.22h-3.55l-9.09-20.22h4.6l6.31,14.69Zm6.42,20.22V38.46H133V58.68Zm25.93,0h-4.69L147.2,52a2,2,0,0,0-.95-1.11,3.79,3.79,0,0,0-1.61-.31h-2.87v8.15H137.4V38.46h9A8.1,8.1,0,0,1,151.74,40a5.44,5.44,0,0,1,1.82,4.41,5.67,5.67,0,0,1-1.06,3.46,5.82,5.82,0,0,1-3.06,2.08A3.51,3.51,0,0,1,152,52.41Zm-8.72-11.53a4.73,4.73,0,0,0,2.78-.64,2.69,2.69,0,0,0,0-4,4.73,4.73,0,0,0-2.78-.64h-4v5.28ZM162,58.68V42.07h-6.33V38.46h17.15v3.61h-6.33V58.68Zm15.65-1.93c-1.48-1.46-2.22-3.59-2.22-6.42V38.46h4.35V50.53a5.36,5.36,0,0,0,1.12,3.68,4.09,4.09,0,0,0,3.22,1.26,4,4,0,0,0,3.21-1.26,5.41,5.41,0,0,0,1.11-3.68V38.46h4.38V50.33c0,2.81-.75,4.94-2.23,6.41s-3.64,2.2-6.47,2.2S179.1,58.21,177.62,56.75Zm34.76,1.93-1.93-4.48H201l-1.93,4.48H194.6l9.29-20.22h3.58l9.29,20.22Zm-9.91-7.86H209l-3.26-7.59Zm16.39,7.86V38.46h4.43V55.08h9v3.6Zm16.53,0V38.46h13.94V41.9h-9.62v4.77h9v3.46h-9v5.12h9.62v3.43Zm19.75-.35a10.1,10.1,0,0,1-3.51-1.72l1.42-3.18a11.17,11.17,0,0,0,6.54,2,5.93,5.93,0,0,0,3-.61,1.89,1.89,0,0,0,1-1.71,1.68,1.68,0,0,0-.95-1.52,12.34,12.34,0,0,0-3.34-1.07,17.63,17.63,0,0,1-4.24-1.32,5.56,5.56,0,0,1-2.3-1.9,5,5,0,0,1-.73-2.8,5.62,5.62,0,0,1,1-3.27A6.54,6.54,0,0,1,255.87,39a10.22,10.22,0,0,1,4.2-.81,13.68,13.68,0,0,1,4.15.62,8.71,8.71,0,0,1,3.18,1.7L266,43.72a9.42,9.42,0,0,0-5.88-2,4.88,4.88,0,0,0-2.73.68,2.12,2.12,0,0,0-1,1.85,1.71,1.71,0,0,0,.38,1.13,3.09,3.09,0,0,0,1.3.81,16,16,0,0,0,2.58.7,14.18,14.18,0,0,1,5.61,2.22,4.49,4.49,0,0,1,1.72,3.72,5.33,5.33,0,0,1-2.22,4.5,10,10,0,0,1-6.16,1.66A15.78,15.78,0,0,1,255.14,58.33ZM94.81,9.25H39.92a1.53,1.53,0,0,0-1.53,1.53V53.47A1.54,1.54,0,0,0,39.92,55H63.66V41.13a8.46,8.46,0,0,1,8.18-8.66h2.57a8.46,8.46,0,0,1,8.19,8.65V55h0l11.25,7.78a1.49,1.49,0,0,0,1,.35,1.53,1.53,0,0,0,1.53-1.52V10.78A1.52,1.52,0,0,0,94.81,9.25ZM73.13,29.39a5.74,5.74,0,1,1,5.73-5.74A5.75,5.75,0,0,1,73.13,29.39Zm20.3,29.29-7.92-5.37V41.12a11.59,11.59,0,0,0-7-10.72,8.64,8.64,0,1,0-10.79,0,11.59,11.59,0,0,0-7,10.72v11H41.3V12.16H93.43Z"/><rect class="cls-4" x="57.75" y="9.25" width="16.09" height="2.91"/><path class="cls-5" d="M56.42,0H1.52A1.52,1.52,0,0,0,0,1.52V52.35a1.53,1.53,0,0,0,.87,1.38,1.51,1.51,0,0,0,1.62-.2l11.25-7.78h0v-3h0V31.87a8.45,8.45,0,0,1,8.18-8.65h2.57a8.46,8.46,0,0,1,8.19,8.65v8.81h0v5.07H56.42a1.53,1.53,0,0,0,1.52-1.53V1.52A1.52,1.52,0,0,0,56.42,0ZM23.21,20.13a5.73,5.73,0,1,1,5.73-5.73A5.74,5.74,0,0,1,23.21,20.13ZM55,42.84H35.59v-11a11.58,11.58,0,0,0-7-10.72,8.64,8.64,0,1,0-10.78,0,11.58,11.58,0,0,0-7,10.72V43.92L2.91,49.43V2.91H55Z"/><rect class="cls-6" x="38.95" y="9.25" width="16.09" height="2.91" transform="translate(94 21.42) rotate(-180)"/><rect class="cls-7" x="41.28" y="42.83" width="16.09" height="2.93"/><rect class="cls-8" x="32.68" y="42.83" width="5.85" height="2.93" transform="translate(71.22 88.59) rotate(-180)"/><path class="cls-9" d="M41.3,49V12.16H55c0-1,0-2.79,0-2.91H39.92a1.53,1.53,0,0,0-1.53,1.53V49Z"/></g></g></g></svg>