<svg width="800" height="200" xmlns="http://www.w3.org/2000/svg" data-name="Capa 1">
 <g>
  <title>Layer 1</title>
  <g id="svg_16">
   <g id="svg_1">
    <path id="svg_2" fill="#b2b4b6" fill-rule="evenodd" stroke-width="0px" d="m83.85626,126.09786c23.92,27.95 90.62,4.16 73.59,-43.1c-4.09,-11.36 -19.71,-8.33 -23.6,5.32c-11.78,41.31 -41.56,32 -52.54,26.96c-0.82,-0.38 -1.54,-0.73 -2.14,-1.04c-5.99,-3.08 3.61,10.59 4.7,11.87" class="cls-7"/>
    <path id="svg_3" fill="#808285" fill-rule="evenodd" stroke-width="0px" d="m168.48626,81.76786c-1.34,3.04 -4.16,5.66 -7.95,6.75c-16.83,4.83 -24.67,0.2 -40.28,10.17c-22.71,14.5 14.09,-42.2 38.86,-33.01c6.33,2.35 12.48,9.03 9.37,16.09" class="cls-6"/>
    <path id="svg_4" fill="#00aeef" fill-rule="evenodd" stroke-width="0px" d="m100.03626,97.12786c1.13,1.65 2.37,3.25 3.71,4.81c4.12,4.77 9.12,9.04 14.26,12.53c4.53,3.07 8.15,5.55 12.4,7.23c4.64,1.84 -14.77,7.26 -31.4,1.54c-4.01,-1.38 -8.21,-2.39 -11.47,-5.43c-3.58,-3.35 -6.43,-7.84 -8,-13.81c-1.06,-4.01 -0.59,-7.86 -0.06,-10.54c1.11,-5.62 10.23,-16.36 14.76,-8.69c1.84,3.12 3.05,8.37 5.78,12.36" class="cls-2"/>
    <path id="svg_5" fill-rule="evenodd" stroke-width="0px" fill="#58595b" d="m110.92626,65.19786c-14.22,0.46 -34.91,1.53 -36.88,32.01c-1.94,29.88 -22.4,-20.24 4.98,-50.54c26.11,-28.91 76.15,-16.61 49.13,11.83c-6.17,6.49 -7.02,6.36 -17.22,6.7" class="cls-1"/>
    <path id="svg_6" fill="#6d6f71" fill-rule="evenodd" stroke-width="0px" d="m117.93626,114.41786c-10.3,7.48 -22.26,5.9 -30.56,3.23c16.69,15.87 49.84,6.35 44.06,4.05c-4.27,-1.69 -8.94,-4.18 -13.49,-7.28" class="cls-3"/>
    <path id="svg_7" fill="#003f88" fill-rule="evenodd" stroke-width="0px" d="m159.15626,88.89786c-0.43,-1.92 -0.99,-3.88 -1.71,-5.89c-4.09,-11.36 -19.71,-8.33 -23.6,5.32c-0.48,1.68 -0.99,3.26 -1.52,4.78c8.52,-2.38 15.7,-1.26 26.83,-4.2" class="cls-4"/>
   </g>
   <g id="svg_15">
    <path id="svg_9" fill="#003f88" stroke-width="0px" d="m192.91626,88.04786c0,-6.55 1.12,-12.81 3.37,-18.79c2.25,-5.98 5.77,-10.86 10.58,-14.61c4.8,-3.76 10.75,-5.64 17.85,-5.64c4.96,0 9.44,1.15 13.43,3.45c3.99,2.29 6.91,5.6 8.77,9.92l0.28,0l0,-11.42l19,0l0,72.17c0,7.7 -1.14,14.07 -3.41,19.1c-2.27,5.03 -6.25,8.9 -11.93,11.59c-5.68,2.69 -13.52,4.03 -23.49,4.03c-7.42,0 -14.55,-1.73 -21.39,-5.18c-6.85,-3.46 -10.52,-9.32 -11.03,-17.57l21.36,0c0.65,2.5 1.96,4.4 3.93,5.7c1.97,1.29 5.21,1.94 9.71,1.94s8.2,-0.84 10.54,-2.5c2.35,-1.67 3.83,-3.61 4.46,-5.81c0.63,-2.21 1.1,-5.28 1.42,-9.22l0,-8.84l-0.28,-0.56c-4.45,7.8 -11.16,11.69 -20.11,11.69c-5.76,0 -11.12,-1.29 -16.12,-3.86c-4.99,-2.57 -9.06,-6.8 -12.21,-12.69c-3.15,-5.89 -4.73,-13.53 -4.73,-22.89m20.95,1.24c0,3.62 0.51,7.03 1.53,10.23c1.02,3.2 2.69,5.84 5.01,7.89c2.32,2.07 5.32,3.1 8.98,3.1c4.27,0 7.67,-1.04 10.19,-3.1c2.53,-2.06 4.3,-4.74 5.29,-8.04c1,-3.3 1.49,-6.94 1.49,-10.92s-0.65,-7.83 -1.95,-11.24c-1.3,-3.41 -3.24,-6.09 -5.81,-8.04c-2.58,-1.95 -5.65,-2.93 -9.23,-2.93c-4.36,0 -8.04,1.83 -11.03,5.47c-3,3.65 -4.49,9.5 -4.49,17.57" class="cls-5"/>
    <path id="svg_10" fill="#003f88" stroke-width="0px" d="m277.68626,87.49786c0,-4.83 0.65,-9.54 1.95,-14.13c1.29,-4.6 3.44,-8.76 6.43,-12.49c3,-3.74 6.8,-6.65 11.42,-8.74c4.61,-2.09 10.17,-3.13 16.66,-3.13c8.54,0 15.49,1.94 20.85,5.85c5.36,3.89 9.16,8.99 11.42,15.27c2.25,6.29 3.37,13.17 3.37,20.64l0,3.55l-52.27,0c0.51,6.93 2.41,11.76 5.68,14.49c3.27,2.72 7.41,4.09 12.42,4.09c3.07,0 5.77,-0.8 8.14,-2.39c2.37,-1.6 3.92,-3.52 4.66,-5.79l20.53,0c-2.27,7.67 -6.36,13.63 -12.25,17.88c-5.89,4.26 -12.92,6.38 -21.09,6.38c-5.33,0 -10.26,-0.67 -14.75,-2.01c-4.5,-1.35 -8.5,-3.62 -12.01,-6.83c-3.51,-3.2 -6.24,-7.48 -8.21,-12.84c-1.97,-5.36 -2.96,-11.95 -2.96,-19.79m20.67,-5.85l30.9,0c-0.42,-5.12 -2.03,-9.11 -4.84,-11.95c-2.8,-2.84 -6.32,-4.26 -10.54,-4.26c-4.78,0 -8.41,1.48 -10.89,4.43c-2.48,2.96 -4.02,6.89 -4.63,11.78" class="cls-5"/>
    <path id="svg_11" fill="#003f88" stroke-width="0px" d="m357.92626,102.73786l20.67,0c0,7.42 5.47,11.13 16.43,11.13c4.45,0 7.69,-0.79 9.74,-2.37c2.04,-1.57 3.06,-3.36 3.06,-5.36c0,-2.79 -2.88,-4.91 -8.63,-6.4c-5.75,-1.49 -11.48,-2.89 -17.19,-4.21c-5.7,-1.32 -10.67,-3.56 -14.89,-6.72c-4.22,-3.15 -6.33,-7.97 -6.33,-14.47c0,-3.52 0.63,-6.82 1.88,-9.88c1.25,-3.07 3.17,-5.77 5.77,-8.11c2.6,-2.34 5.82,-4.15 9.68,-5.43c3.85,-1.28 8.4,-1.91 13.64,-1.91c13.13,0 21.96,2.54 26.48,7.62c4.53,5.08 7,10.89 7.42,17.43l-19.77,0c-0.51,-3.1 -1.69,-5.49 -3.55,-7.17c-1.86,-1.66 -5.16,-2.51 -9.88,-2.51c-8.07,0 -12.11,2.37 -12.11,7.11c0,2.5 2.69,4.45 8.07,5.84c5.38,1.4 11.15,2.8 17.29,4.21c6.15,1.42 11.39,3.73 15.73,6.96c4.33,3.23 6.5,7.97 6.5,14.24c0,5.47 -1.36,10.18 -4.07,14.13c-2.71,3.94 -6.56,6.94 -11.55,9.01c-4.99,2.07 -10.85,3.1 -17.57,3.1s-13.25,-0.94 -18.72,-2.82c-5.47,-1.88 -9.85,-4.78 -13.12,-8.7c-3.27,-3.92 -4.93,-8.82 -4.97,-14.71" class="cls-5"/>
    <path id="svg_12" fill="#003f88" stroke-width="0px" d="m444.91626,111.42786l0,-46.07l-10.29,0l0,-14.4l10.29,0l0,-20.32l20.12,0l0,20.32l12.25,0l0,14.4l-12.25,0l0,41.2c0,1.81 0.12,3.11 0.38,3.9c0.26,0.79 0.91,1.36 1.98,1.7c1.07,0.35 2.92,0.52 5.57,0.52c0.56,0 1.36,-0.05 2.43,-0.14c1.07,-0.09 1.69,-0.14 1.88,-0.14l0,15.1c-0.56,0 -1.97,0.05 -4.24,0.14c-2.28,0.09 -3.95,0.14 -5.02,0.14l-2.71,0c-5.62,0 -9.92,-0.66 -12.91,-1.98c-3,-1.32 -4.99,-3.13 -5.98,-5.43c-1.01,-2.3 -1.5,-5.28 -1.5,-8.95" class="cls-5"/>
    <path id="svg_13" fill="#003f88" stroke-width="0px" d="m484.65626,107.11786c0,-7.52 2.09,-13.24 6.26,-17.19c4.18,-3.94 9.47,-6.38 15.87,-7.31l18.37,-2.71c4.36,-0.65 6.54,-2.51 6.54,-5.57c0,-6.17 -3.99,-9.26 -11.97,-9.26c-3.99,0 -7.1,0.74 -9.32,2.23c-2.23,1.49 -3.53,4.32 -3.9,8.49l-19.27,0c0.51,-4.87 1.5,-8.94 2.99,-12.21c1.49,-3.27 3.54,-5.98 6.16,-8.1c2.62,-2.14 5.88,-3.72 9.78,-4.77c3.9,-1.05 8.42,-1.61 13.57,-1.7c9.05,0 15.91,1.31 20.6,3.93c4.68,2.62 7.68,5.52 8.98,8.7c1.29,3.17 1.94,6.27 1.94,9.29l0,41.19c0,3.3 0.28,5.97 0.84,8c0.56,2.04 1.74,3.32 3.55,3.83l0,2.99l-21.37,0c-1.15,-3.53 -1.83,-6.52 -2.01,-8.98c-3.11,3.38 -6.57,6.03 -10.37,7.93c-3.8,1.9 -8.24,2.92 -13.29,3.06c-6.17,0 -11.7,-1.74 -16.6,-5.22c-4.89,-3.48 -7.34,-9.03 -7.34,-16.63m47.05,-17.19c-2,1.58 -5.7,2.88 -11.1,3.9c-5.41,1.02 -9.4,2.24 -11.97,3.65c-2.57,1.42 -3.86,4.3 -3.86,8.66c0,2.79 0.93,4.91 2.79,6.37c1.86,1.46 4.15,2.19 6.89,2.19c4.17,-0.19 8.1,-1.53 11.77,-4.03c3.66,-2.51 5.49,-6.15 5.49,-10.93l0,-9.81l-0.01,0z" class="cls-5"/>
    <path id="svg_14" fill="#003f88" stroke-width="0px" d="m569.06626,126.94786l0,-75.99l18.93,0l0,13.44l0.63,-0.28c1.62,-3.02 3.13,-5.51 4.52,-7.48c1.39,-1.97 3.44,-3.73 6.16,-5.29c2.71,-1.56 6.04,-2.33 9.99,-2.33c0.42,0 1.07,0.05 1.95,0.14c0.87,0.09 1.5,0.14 1.87,0.14l0,20.39c-1.35,-0.19 -3.2,-0.28 -5.57,-0.28c-12.24,0 -18.37,6.03 -18.37,18.09l0,39.46l-20.12,0l0.01,-0.01z" class="cls-5"/>
   </g>
  </g>
 </g>

</svg>